<svg width="59" height="53" viewBox="0 0 59 53" fill="none" xmlns="http://www.w3.org/2000/svg">
	<path
		d="M55.2943 0H3.44156C1.54411 0 0 1.54411 0 3.44156V37.6277C0 39.5251 1.54411 41.0692 3.44156 41.0692H55.2943C57.1918 41.0692 58.7359 39.5251 58.7359 37.6277V3.44156C58.7359 1.54411 57.1918 0 55.2943 0Z"
		fill="#E0E0E0"
	/>
	<path
		d="M47.7232 49.5584H38.431V44.5107H20.3055V49.5584H11.0133C10.0634 49.5584 9.29248 50.3293 9.29248 51.2791C9.29248 52.229 10.0634 52.9999 11.0133 52.9999H47.7232C48.6731 52.9999 49.444 52.229 49.444 51.2791C49.444 50.3293 48.6731 49.5584 47.7232 49.5584Z"
		fill="#E0E0E0"
	/>
</svg>
